<mxfile host="app.diagrams.net" modified="2023-03-27T09:16:12.970Z" agent="Mozilla/5.0 (X11; Linux x86_64) AppleWebKit/537.36 (KHTML, like Gecko) Chrome/110.0.0.0 Safari/537.36" version="21.1.1" etag="Ma6FdRGlNn_my4d4gWIo" type="github">
  <diagram name="Page-1" id="bdMScYcuoiiGnWEeXWzu">
    <mxGraphModel>
      <root>
        <mxCell id="0" />
        <mxCell id="1" parent="0" />
      </root>
    </mxGraphModel>
  </diagram>
</mxfile>
